# xmcd
#
# Track frame offsets: 
#        150
#        8677
#        21575
#        33408
#        47394
#        64307
#        73012
#        84268
#        94839
#        105259
#        117577
#        126157
#        138009
#        153977
#
# Disc length: 2198 seconds
#
# Revision: 0
# Processed by: cddbd v1.5.1PL0 Copyright (c) Steve Scherf et al.
# Submitted via: ExactAudioCopy v0.95a5
#
DISCID=af08940e
DTITLE=Various Artist - Bluegrass - Volume 3
DYEAR=2004
DGENRE=Bluegrass
TTITLE0=Ralph Stanley and The Clinch Mountain Boys/Ain't It Hard
TTITLE1=Hylo Brown/Lovesick and Sorrow
TTITLE2=Ralph Stanley, Ricky Skaggs, and Keith Whitley/Lonesome River
TTITLE3=The Goins Brothers/Wildwood Flower
TTITLE4=The Fields Brothers/Ruby
TTITLE5=Ralph "Joe" Meadows/Me and My Fiddle
TTITLE6=Jim Eanes/Don't Let Your Sweet Love Die
TTITLE7=Leon Morris/Lonely Hearts
TTITLE8=Lowell Varney/Back Road Pickin'
TTITLE9=Hylo Brown/Jimmy Crack Corn
TTITLE10=Carl Story/When We All Get to Heaven
TTITLE11=Roy McGinnis and The Sunnysiders/Sunnyside of Life
TTITLE12=Ralph Stanley and The Clinch Mountain Boys/River Underground
TTITLE13=Bluegrass Alliance/Fox on the Run
EXTD=
EXTT0=
EXTT1=
EXTT2=
EXTT3=
EXTT4=
EXTT5=
EXTT6=
EXTT7=
EXTT8=
EXTT9=
EXTT10=
EXTT11=
EXTT12=
EXTT13=
PLAYORDER=
